<?xml version="1.0" encoding="UTF-8"?>
<svg id="Ebene_2" xmlns="http://www.w3.org/2000/svg" version="1.1" viewBox="0 0 506 264.9">
  <!-- Generator: Adobe Illustrator 29.2.1, SVG Export Plug-In . SVG Version: 2.1.0 Build 116)  -->
  <defs>
    <style>
      .st0 {
        fill: none;
      }

      .st1 {
        fill: #1d1d1b;
      }

      .st2 {
        fill: #f7a600;
      }

      .st3 {
        fill: #b2b2b2;
      }
    </style>
  </defs>
  <rect class="st0" x="-10" y="243" width="560.3" height="47.9"/>
  <g>
    <path class="st1" d="M40.9,252.7v-11.9h12v2.1h-9.2v3.1h5v2.2h-5v4.5h-2.8Z"/>
    <path class="st1" d="M60.9,252.7v-11.9h2.8v11.9h-2.8Z"/>
    <path class="st1" d="M74.3,252.7v-11.9h1.9l8.3,7c.6.5,1.1.9,1.4,1.3,0-1.1-.1-1.8-.1-2v-6.2h2.5v11.9h-1.9l-8.7-7.3c-.4-.3-.7-.6-1-1,0,.8.1,1.4.1,1.9v6.4h-2.5Z"/>
    <path class="st1" d="M98.9,252.7v-11.9h12.1v2h-9.4v2.6h5.5v2h-5.5v2.9h9.5v2.2h-12.3Z"/>
    <path class="st1" d="M131.2,242.9h-7.8v2.6h7.4c1.1,0,1.9.2,2.3.6.4.4.6,1.1.6,2.2v1.6c0,1.1-.2,1.8-.6,2.2-.4.4-1.2.6-2.3.6h-7.3c-1.1,0-1.9-.2-2.3-.6-.4-.4-.6-1.1-.6-2.2v-.3l2.4-.5v1.4h8.4v-2.7h-7.4c-1.1,0-1.9-.2-2.3-.6-.4-.4-.6-1.1-.6-2.2v-1.3c0-1.1.2-1.8.6-2.2.4-.4,1.2-.6,2.3-.6h6.7c1.1,0,1.9.2,2.3.6.4.4.7,1.1.7,2v.3l-2.4.6v-1.4Z"/>
    <path class="st1" d="M149.6,243v9.8h-2.8v-9.8h-5.5v-2.1h13.7v2.1h-5.5Z"/>
    <path class="st1" d="M180.6,252.7l-6.9-11.9h3.2l4.8,8.6,4.6-8.6h2.8l-6.5,11.9h-1.9Z"/>
    <path class="st1" d="M196.8,252.7v-11.9h2.8v11.9h-2.8Z"/>
    <path class="st1" d="M210.2,252.7v-11.9h1.9l8.3,7c.6.5,1.1.9,1.4,1.3,0-1.1-.1-1.8-.1-2v-6.2h2.5v11.9h-1.9l-8.7-7.3c-.4-.3-.7-.6-1-1,0,.8.1,1.4.1,1.9v6.4h-2.5Z"/>
    <path class="st1" d="M240.4,243v9.8h-2.8v-9.8h-5.5v-2.1h13.7v2.1h-5.5Z"/>
    <path class="st1" d="M251.6,252.7l6.7-11.9h2.7l6.8,11.9h-3.1l-1.4-2.6h-7.5l-1.4,2.6h-2.8ZM256.9,248h5.2l-2.6-4.8-2.6,4.8Z"/>
    <path class="st1" d="M287.3,243h-8.6v7.5h8.6v-2.6h-4.5v-2h7.2v4.1c0,1.1-.2,1.8-.6,2.2-.4.4-1.2.6-2.3.6h-8.2c-1.1,0-1.9-.2-2.3-.6-.4-.4-.6-1.1-.6-2.2v-6.3c0-1.1.2-1.8.6-2.2.4-.4,1.2-.6,2.3-.6h8.2c1.1,0,1.9.2,2.3.6.4.4.6,1.1.6,2.1v.3l-2.7.5v-1.3Z"/>
    <path class="st1" d="M300.4,252.7v-11.9h12.1v2h-9.4v2.6h5.5v2h-5.5v2.9h9.5v2.2h-12.3Z"/>
    <path class="st1" d="M345.9,243h-7.5v7.5h7.5v-2.6l2.8.6v1.4c0,1.1-.2,1.8-.6,2.2-.4.4-1.2.6-2.3.6h-7.1c-1.1,0-1.9-.2-2.3-.6-.4-.4-.6-1.1-.6-2.2v-6.3c0-1.1.2-1.8.6-2.2.4-.4,1.2-.6,2.3-.6h7.1c1.1,0,1.9.2,2.3.6.4.4.6,1.1.6,2.2v1.1l-2.8.4v-2.3Z"/>
    <path class="st1" d="M358.9,252.7v-11.9h2.8v9.6h8.9v2.2h-11.7Z"/>
    <path class="st1" d="M379,243.7c0-1.1.2-1.8.6-2.2.4-.4,1.2-.6,2.3-.6h8.7c1.1,0,1.9.2,2.3.6.4.4.6,1.1.6,2.2v6.3c0,1.1-.2,1.8-.6,2.2-.4.4-1.2.6-2.3.6h-8.7c-1.1,0-1.9-.2-2.3-.6-.4-.4-.6-1.1-.6-2.2v-6.3ZM381.7,250.5h9.1v-7.5h-9.1v7.5Z"/>
    <path class="st1" d="M409.5,243v9.8h-2.8v-9.8h-5.5v-2.1h13.7v2.1h-5.5Z"/>
    <path class="st1" d="M423,252.7v-11.9h2.8v4.6h8.6v-4.6h2.8v11.9h-2.8v-5.1h-8.6v5.1h-2.8Z"/>
    <path class="st1" d="M447.8,252.7v-11.9h2.8v11.9h-2.8Z"/>
    <path class="st1" d="M461.2,252.7v-11.9h1.9l8.3,7c.6.5,1,.9,1.4,1.3,0-1.1-.1-1.8-.1-2v-6.2h2.5v11.9h-1.9l-8.7-7.3c-.4-.3-.7-.6-1-1,0,.8.1,1.4.1,1.9v6.4h-2.5Z"/>
    <path class="st1" d="M497,243h-8.6v7.5h8.6v-2.6h-4.5v-2h7.2v4.1c0,1.1-.2,1.8-.6,2.2-.4.4-1.2.6-2.3.6h-8.2c-1.1,0-1.9-.2-2.3-.6-.4-.4-.6-1.1-.6-2.2v-6.3c0-1.1.2-1.8.6-2.2.4-.4,1.2-.6,2.3-.6h8.2c1.1,0,1.9.2,2.3.6.4.4.6,1.1.6,2.1v.3l-2.7.5v-1.3Z"/>
  </g>
  <g>
    <path class="st1" d="M90.2,223.9c-13,0-25.9-12.7-36.3-22.9-.9-.9-1.8-1.8-2.7-2.6-4.4-4.2-9.9-9.7-11.3-11.6-1.7-2.3-2.2-5.1-1.5-7.8-6.7-1.7-11.8-4.7-15.5-8.9-1.5-1.7-3-3.3-4.4-4.8-7.9-8.4-16.8-17.8-9.7-34.3,6.4-14.8,23.7-22.8,36.7-22.8s7.3.6,10.3,1.9c12.1,5,26.3,24,29,27.8,2,2.7,2.3,6.2,1,9.2,8.9,2.7,17.7,10.4,27.6,23.7,0,0,.1.1.1.2l9,13c.3.4.5.8.7,1.2,2.2,4.5,4.1,14.4-2.8,22.8-5.8,7.1-15.8,15.7-30,15.9h-.3ZM67.5,188.5c2,2,4.7,4.6,7.5,7.1l-6.4-7.2h-1.1ZM106.6,193.4c.1.4.2.8.3,1.2,0-.4,0-.7,0-.9l-.2-.3h0ZM88,169.6c2.9,3.4,7.4,8.6,10.9,12.7l-.4-.5c-4.2-5.7-7.7-9.6-10.6-12.1h0ZM26.4,137.2c-.2.4-.4.8-.6,1.2-2.1,4.9-1.6,6.1,6.2,14.3,1.5,1.6,3.1,3.3,4.8,5.3.8.9,2.4,2.1,5.6,3-6.4-4.6-10.6-11.4-12.4-14.4l-.4-.6c-1.2-1.9-2.7-4.2-3.1-7.3,0-.4-.1-.9-.1-1.5h0ZM53.6,130.4c1.2,1.3,2.7,3.1,4.7,5.3.2,0,.4-.1.7-.2-1.8-1.9-3.7-3.7-5.3-5.1h0Z"/>
    <path class="st1" d="M127.7,202.1c-2.7,0-5.4-1.2-7.2-3.4-1.9-2.3-2.5-5.4-1.8-8.1-.3-.7-1-1.9-2.5-3.6-7.1-8.6-59.5-76-61.7-78.9-1.6-2-7.6-7.9-13-7.4-2.4.2-3.4.3-4,.3-6.1,0-9.5-4.6-9.7-9-.1-3.5,1.8-8.1,7.7-9.5.5-.1,1.3-.3,2.3-.5,1.6-.3,3.8-.7,6.2-1,2.7-.4,9.6-1.4,15.2-1.7,9-.6,12.8-1.3,14.1-1.6,2.8-1.9,6.5-2.3,9.7-.6,3.2,1.7,5,5.1,4.8,8.4,3.7-1.2,8-2.1,12.5-2.1,9.7,0,17.7,4.2,23.2,12.1,1.7,2.4,40.4,58.9,45.9,68.1,4.4,7.4,10.7,13.4,12.8,14.8,5.3,1.6,7.7,6.4,7.2,10.5-.5,4.5-4.3,9.7-13.6,9.7-3.4,0-8.9-.8-15.5-4.5-3.6-2-6.5-3.4-8.7-4.1l-19.5,11c-1.4.8-3,1.2-4.5,1.2h0ZM75.3,104.6c4.2,5.4,10.2,13.2,16.8,21.6l-8.6-11.7c-1.5-2-2.1-4.6-1.6-7.1-.7,0-1.5-.1-2.2-.3-1.7-.4-3.2-1.3-4.4-2.5h0ZM69.3,96.8c.4.5,2.2,2.8,4.8,6.2,0-.1-.1-.2-.2-.3-1.1-1.9-2.3-4.1-3.3-6-.4,0-.9.1-1.4.2h0Z"/>
    <path class="st1" d="M181.6,175.3h0c-14.3,0-24.2-14.1-25.3-15.7,0,0,0,0,0-.1-.3-.4-25.7-39.6-34.7-53.8-5.4-8.5-6.9-15.9-4.6-22.7,3.1-9.3,12.5-13.7,20.2-16.6,4-1.5,7.8-2.2,11.5-2.2,10.7,0,17.2,6.1,20.2,9,.3.3.6.5.8.7,5.4,4.7,16.4,27.7,16.9,29.2.3,1,.5,2.1.5,3.2,1.2.8,2.2,2,3,3.4.5,1.1,13.5,26,17.6,35.9.9,2.1,3.6,8.5.9,14.9-2.9,6.9-9.5,9.5-17.9,12.8l-1.1.4c-2.5,1-5.2,1.5-7.9,1.5h0ZM150,115.9c.7,1.1,1.4,2.2,2.1,3.3,0,0,0,0,0,0,.1-.5.4-1.4,1-2.6-.4,0-.8,0-1.2-.1-.7-.1-1.3-.3-1.9-.5h0Z"/>
    <path class="st1" d="M306.9,199.8c-1.8,0-3.7-.5-5.2-1.6l-15.4-10.6c-1.6-1.1-2.8-2.7-3.5-4.5l-25.4-70.1v11.8c-.2,3.3-2,6.4-4.9,8-2.9,1.6-6.5,1.5-9.3-.2l-15.6-9.6c-1.4-.9-2.5-2.1-3.3-3.5l-3-5.7-1.5-1.5,24,52.6c1.7,3.7.7,8.1-2.4,10.8-3.1,2.7-7.6,3-11.1.8l-16.4-10.6c-1.5-1-2.7-2.4-3.4-4l-49.1-111.6c-1.7-3.8-.6-8.2,2.6-10.9,3.2-2.6,7.8-2.8,11.2-.4l15.6,11c.4.3.8.6,1.2,1l32.1,32.1,2.2-69.1c.1-3.4,2-6.4,5-7.9,3-1.5,6.6-1.3,9.4.6l15.4,10.4c1.8,1.2,3.2,3.1,3.8,5.3l7,26.4,48.8,139c1.3,3.8,0,8-3.1,10.4-1.7,1.3-3.6,1.9-5.6,1.9h0ZM244.1,34.9l-.6,19.8c1.1-.8,2.4-1.3,3.8-1.6.6,0,1.1-.1,1.7-.1l-4.8-18.2h0Z"/>
    <path class="st1" d="M317.7,156.5h0c-1.1,0-2.3,0-3.5-.2-17-2.3-20.7-5.7-28.1-25.9-1.3-3.6-2.8-7.5-4.4-11.7-8.1-21.5-13.5-36.2-14.2-43.3-.2-2-.6-9.1,4.4-14.9,2.5-2.9,7.3-6.4,15.5-6.4s4,.2,6.2.6c15.3,2.6,24,9.3,26.7,20.3v.2c.7,2.6,14.9,58.2,15,58.7,0,.3.1.6.2.9.2,1.6,1.2,9.6-4.1,15.8-2.3,2.7-6.5,5.8-13.6,5.8h0Z"/>
    <path class="st1" d="M375.4,179.6c-1.8,0-3.1-.5-4.2-.9-.3-.1-.7-.3-1.2-.4-7.8-2.5-15.9-13-19.5-18.8-.6-1-1.2-1.9-1.6-2.5l-15.5-1.4c-3.6-.3-6.7-2.7-7.9-6.1-1-2.9-.5-6,1.2-8.4-2.4-9.8-14.2-58-14.7-60.2-.1-.6-.2-.5-.2-1-.1-.4-.5-1.3-1.4-2-2.3-1.6-8.5-5.7-6.4-12.8,1.2-4,5-6.7,9.3-6.7s1.4,0,1.9.2c2.7.3,18.2,2,28.2,5.2,12.8,4.1,19.5,9.4,22.9,28.4,3,16.7,7.2,39.9,8.3,48.8,1.4,10.7,3,17.3,4.9,19.6.6.7,1.1,1.3,1.5,1.8,1.9,2.2,5.3,6.3,2.8,11.8-1.5,3.3-4.8,5.4-8.5,5.4h0Z"/>
    <path class="st1" d="M395.5,164.7c-.2,0-.4,0-.6,0-7.9-.3-26.4-.9-30.5-20.7-2.6-12.7-4.6-26.9-4.6-27.5-.2-1.8,0-3.6.8-5.2-1.8-2.9-3.1-6.3-3.6-10.5-3-18.7,2-23.5,3.6-25.1,3.2-3.1,7.8-4.8,13.2-4.8s9.2,1.1,13.9,3.1c6.2,2.7,17.8,7.6,19,23.8.8,10,.9,14.7.9,14.9,0,2-.6,4-1.7,5.6,3.4,6.3,3.8,12.5,4.1,16.5,0,.5,0,1.1.1,1.6,0,.5,0,1.1.2,1.7.6,6.3,1.6,15.8-4,22-2.7,3-6.5,4.6-10.7,4.6h0Z"/>
    <path class="st1" d="M425.4,171.7c-3.6,0-10.2-1.8-13.8-2.8-3-.9-9.9-4.5-10.6-19.2l-3.2-47.3c0-.4,0-.6,0-.9,0-.7-.2-1.7-.4-2.2-2.5-1.8-8.3-6.1-6.2-13,1.3-4.1,5.3-6.9,9.7-6.7.4,0,.6,0,.8,0,.2,0,.4,0,.8.2,1,0,4.1-.5,7.9-5.1,1.9-2.4,4.8-3.9,7.8-3.9s5,1,6.8,2.9c2.9,3,3.3,7,3.2,10.8v.8c0,.9,0,1.8,0,2.7,3.2,1.5,5.3,4.8,5.3,8.4v1.5c0,2.8-1.2,5.4-3.4,7.2,0,0-.1.1-.2.2.3,9.9,1,31.6,1.5,47,0,.2,0,.2,0,.4,0,.6.2,1.4.4,1.7,4,3.5,4.3,7.9,3.1,10.9-1.1,3.1-4.2,6.3-9.6,6.3h0Z"/>
    <path class="st1" d="M450,178.2c-2.4,0-5.1-.3-8.2-1-11.6-2.4-19-9.7-20.9-20.5-.7-4.3-1.2-11.5-1.5-34.5-.2-12.9.7-20.3,5.6-25.3,2.9-2.9,6.7-4.4,11.3-4.4s7.4.9,12.1,2.2c17.2,4.8,21.3,16.6,21.1,23l-.4,17.6c0,.8-.1,1.6-.4,2.4.2.9.4,1.9.3,2.9,0,.5-.6,12.2-1.3,20.2-1.3,15.2-11.7,17.5-17.8,17.5h0Z"/>
    <path class="st1" d="M480.1,186c-.8,0-1.6-.1-2.4-.3l-17.7-4.8c-3.5-1-6.2-3.9-6.7-7.6-.5-3.3.8-6.6,3.4-8.6.6-7.9,2.9-37.7,3.4-42.8,0-.6,0-1.1,0-1.4-.2-.3-.4-.5-.5-.8-3.4-5.4-1.7-9.7-.8-11.3,1.7-3.1,5-5.1,8.6-5.1s3.2.4,4.7,1.1c.4.2,1,.4,1.8.7,4.9,1.9,8.1,3.2,10.4,4.8,7,0,12.6,4.2,13.6,5.1,3.5,2.9,4.3,7.8,2.1,11.7.6,4.8-1.2,8.8-3.2,11.2-1.7,1.9-4,3-6.5,3.1-1.1,10.7-2.6,25.7-3,29.4,0,.3,0,.6,0,.8,2.1,2.6,2.6,6.2,1.2,9.4-1.5,3.4-4.9,5.6-8.5,5.6h0Z"/>
    <g>
      <path class="st3" d="M50.5,179.8l24.9-2.7,18.1,20.6s3.9,1.5,5.7-.3c1.8-1.8,2.3-2.6.3-5.1-2-2.6-18.1-21.2-18.1-21.2,0,0-.6-2.3-7.6-2.1-7,.1-31.3,4.5-41-6.5-9.7-11-18.1-16.3-12.5-29.3,5.6-13,24.8-20.3,35.1-16,10.3,4.2,25.1,24.6,25.1,24.6,0,0-15.1-1.5-21.8,3.6,0,0-10.9-12.8-12.1-13.5-1.2-.6-3.6-1.4-6.3.8-2.7,2.1-1.7,3.9.2,6.8,1.8,2.9,9.2,16.2,19.6,15.4,0,0,16.2-2.2,23.7-1.1,7.5,1.1,15.7,7.9,25.2,20.9l9,13s3.3,6.8-1.7,12.9c-5,6.1-12.7,12.3-23,12.5-10.3.1-23.7-14.1-32.7-22.9-9-8.7-10.2-10.4-10.2-10.4Z"/>
      <path class="st3" d="M85,96.6s22.3-14.3,33.9,2.5c0,0,40.2,58.6,45.6,67.6,5.4,9,14.4,18.1,17.9,18.9,3.5.8-3.5,5-14.4-1.2-11-6.2-14.4-6-16.5-6s.8-3.1-5.2-11.5c-6-8.5-43.3-59.6-43.3-59.6,0,0-1.5-3.9-8.9.2l50.6,69s3.3,3.3,4.7,3.5h1.4c0,.1-20,11.4-20,11.4,0,0,2.8-3.2-4.3-11.8-7.1-8.6-61.5-78.7-61.5-78.7,0,0-9.3-12.1-21.2-10.9-11.9,1.1,8.6-2.4,19.1-3,10.5-.7,17.9-1.8,18.7-3.2,0,0-1.5,3.1-.9,4.7.6,1.6,4.3,8.3,4.3,8.3Z"/>
      <path class="st3" d="M202.2,147.6c-4-9.6-17.3-35.2-17.3-35.2,0,0-10.4,4.8-10.6,9.4l13.6,26.2s1.4,2.2-1.7,3.6c-3.1,1.4-5-2.8-5-2.8l-17.1-28.9s2.1-7.7,14.8-13.7c0,0,2.3-.6,1.9-1.7-.4-1.2-11-22.3-14.2-25.2-3.3-2.9-9.6-10.8-23.3-5.8-13.7,5-20,11.4-11,25.6,9,14.2,34.6,53.7,34.6,53.7,0,0,10.4,15.4,22.1,10.8,11.7-4.6,17.1-6.3,13.1-16ZM156.4,105.7s-6-8.9-7.9-12.5c-1.9-3.7-4.2-6.9-1.5-8.3,2.7-1.3,4.4,0,6.3,1.9,1.9,1.9,8.3,14.8,8.3,14.8l-5.2,4Z"/>
      <polygon class="st2" points="222.1 156.5 238.4 167 192.6 66.6 231.9 106.6 235.5 113.6 251.1 123.2 251.9 60.6 294.6 178.4 310 189 261.1 49.7 254 22.9 238.6 12.5 235.7 103 188.6 55.8 173 44.9 222.1 156.5"/>
      <path class="st3" d="M329.3,134.7s-14.3-56.1-15-58.8c-.7-2.7-2.1-10.7-19.3-13.7-17.2-3-15.3,10.6-15.3,10.6.7,7.8,11.5,35,18.1,52.7,6.5,17.7,7.9,18.2,20.7,19.9s10.9-10.8,10.9-10.8ZM315.5,134.5c-2.7.7-4.4-4-4.5-4.5,0-.5-16.2-52.2-16.2-52.2,0,0-1.8-4.3-.8-5.1.9-.7,3.4-.5,4.6.5,1.2,1,2,2,3,5.9,1.1,3.9,14.9,50.5,14.9,50.5,0,0,1.7,4.3-1,5Z"/>
      <path class="st3" d="M317,66.1s16.7,1.6,26.7,4.8c9.9,3.2,13.9,5.9,16.6,21.3,2.8,15.4,7.1,39.5,8.3,48.4,1.2,8.9,2.9,19.3,6.9,24.2,4,4.9,3.9,4.2.4,3.1-3.6-1.2-10-7.6-14.4-14.8-4.4-7.2-5.7-7.5-5.7-7.5,0,0,1.1,0,1.1-1.9,0,0-.7-6.8-2.6-17-1.9-10.2-8.6-42.3-8.6-42.3,0,0-.6-6.6-7.9-6.2l13,60.1s1.4,6,2.8,7l1.3,1.1-17.5-1.5s2.7-2.6,1.8-6.1c-.9-3.5-15.1-61.7-15.1-61.7,0,0-.6-5.2-5.5-8.5-4.9-3.3-1.5-2.5-1.5-2.5Z"/>
      <path class="st3" d="M369.3,98s-2.3-14.1.9-17.2c3.2-3.1,10.3-2.7,17,.2,6.7,2.9,12.7,6.1,13.5,16,.8,9.9.9,14.4.9,14.4l-13-9s1-12.2-4.6-13.9c0,0-3-1.3-2.6,2.9.4,4.1,1.2,9.5,1.7,10.9.5,1.3,3.1,5.3,11.9,12.1,8.9,6.8,8.6,15.5,9,21.3.5,5.8,2.6,18.6-5.7,18.3-8.3-.3-19.1-.9-21.7-13.4-2.6-12.5-4.5-26.8-4.5-26.8l13.3,10.1,2.2,17.3s1,3.3,3.3,3.3,2.4-1.1,1.9-5.4c-.5-4.3-1.6-14.7-1.6-14.7,0,0-7.4-7.6-12.6-12-5.2-4.4-8.6-7.9-9.2-14.2Z"/>
      <path class="st3" d="M403.6,87.3s8.5,2.1,17.1-8.5c0,0,1.4-2.1,1.3,3.9,0,6.1-.3,9.7,2.5,10.9l2.8,1.2v1.5s-3.8-.8-3.8,2.2,1.6,52.4,1.6,52.4c0,0,0,5.7,3.6,8.8,3.7,3.1-11.5-1.3-11.5-1.3,0,0-3.5-1-3.9-10.9l-3.2-47.3s.3-6.8-4.1-9.9c-4.4-3.1-2.4-3-2.4-3Z"/>
      <path class="st3" d="M449,101.9c-14.8-4.1-17.6-2.7-17.3,18.5.3,21.2.7,29.2,1.4,33.1.7,3.9,3,10.8,13.7,13,10.7,2.2,14.2-.3,14.9-8.3.7-8,1.3-19.9,1.3-19.9,0,0-6.6-2.9-12.2-.5l-1.1,18.3s0,2.3-3.4,1.4c-1.7-.5-1.6-4.9-1.6-4.9,0-4.3,0-17.2,0-17.2,0,0,1.8-4.5,10.1-3.3l8.3,1.2.4-17.7s.5-9.7-14.4-13.8ZM450.8,113.4l-.4,9.8-5.7-.3s0-8.9.1-11.1c.2-2.2,1.2-2.6,3.1-2,3.2,1,2.9,3.5,2.9,3.5Z"/>
      <path class="st3" d="M465.5,170.3l17.7,4.8s-2.5-1.5-1.9-7.4c.6-5.9,4.1-40.5,4.1-40.5,0,0,2.1-3.8,4.9-.5l2.8,3.3s1.5-1.7.9-4.4c-.7-2.7,1.3-5.2,1.3-5.2,0,0-5.6-4.7-10.6-2.2,0,0-.5-.2-1.6-1.7-1.2-1.5-10.7-4.8-11.7-5.4-1.1-.6-1.8.2-.7,2,1.2,1.8,2.4,2.3,1.8,8.1-.6,5.8-3.6,44.4-3.6,44.4,0,0,0,2.6-3.4,4.7Z"/>
    </g>
  </g>
</svg>