<?xml version="1.0" encoding="UTF-8" standalone="no"?>
<svg
   id="Ebene_2"
   version="1.1"
   viewBox="0 0 506 264.9"
   sodipodi:docname="logoRand.svg"
   inkscape:version="1.4 (e7c3feb1, 2024-10-09)"
   xmlns:inkscape="http://www.inkscape.org/namespaces/inkscape"
   xmlns:sodipodi="http://sodipodi.sourceforge.net/DTD/sodipodi-0.dtd"
   xmlns:xlink="http://www.w3.org/1999/xlink"
   xmlns="http://www.w3.org/2000/svg"
   xmlns:svg="http://www.w3.org/2000/svg">
  <sodipodi:namedview
     id="namedview41"
     pagecolor="#505050"
     bordercolor="#eeeeee"
     borderopacity="1"
     inkscape:showpageshadow="0"
     inkscape:pageopacity="0"
     inkscape:pagecheckerboard="0"
     inkscape:deskcolor="#505050"
     showguides="true"
     inkscape:zoom="2.0535466"
     inkscape:cx="243.4812"
     inkscape:cy="132.94073"
     inkscape:window-width="1712"
     inkscape:window-height="1069"
     inkscape:window-x="0"
     inkscape:window-y="38"
     inkscape:window-maximized="0"
     inkscape:current-layer="Ebene_2" />
  <!-- Generator: Adobe Illustrator 29.2.1, SVG Export Plug-In . SVG Version: 2.1.0 Build 116)  -->
  <defs
     id="defs1">
    <style
       id="style1">
      .st0 {
        fill: none;
      }

      .st1 {
        fill: #1d1d1b;
      }

      .st2 {
        fill: #f7a600;
      }

      .st3 {
        fill: #b2b2b2;
      }
    </style>
  </defs>
  <rect
     class="st0"
     x="-10"
     y="243"
     width="560.3"
     height="47.9"
     id="rect1" />
  <g
     id="g21">
    <path
       class="st1"
       d="M40.9,252.7v-11.9h12v2.1h-9.2v3.1h5v2.2h-5v4.5h-2.8Z"
       id="path1"
       style="fill:#ffffff" />
    <path
       class="st1"
       d="M60.9,252.7v-11.9h2.8v11.9h-2.8Z"
       id="path2"
       style="fill:#ffffff" />
    <path
       class="st1"
       d="M74.3,252.7v-11.9h1.9l8.3,7c.6.5,1.1.9,1.4,1.3,0-1.1-.1-1.8-.1-2v-6.2h2.5v11.9h-1.9l-8.7-7.3c-.4-.3-.7-.6-1-1,0,.8.1,1.4.1,1.9v6.4h-2.5Z"
       id="path3"
       style="fill:#ffffff" />
    <path
       class="st1"
       d="M98.9,252.7v-11.9h12.1v2h-9.4v2.6h5.5v2h-5.5v2.9h9.5v2.2h-12.3Z"
       id="path4"
       style="fill:#ffffff" />
    <path
       class="st1"
       d="M131.2,242.9h-7.8v2.6h7.4c1.1,0,1.9.2,2.3.6.4.4.6,1.1.6,2.2v1.6c0,1.1-.2,1.8-.6,2.2-.4.4-1.2.6-2.3.6h-7.3c-1.1,0-1.9-.2-2.3-.6-.4-.4-.6-1.1-.6-2.2v-.3l2.4-.5v1.4h8.4v-2.7h-7.4c-1.1,0-1.9-.2-2.3-.6-.4-.4-.6-1.1-.6-2.2v-1.3c0-1.1.2-1.8.6-2.2.4-.4,1.2-.6,2.3-.6h6.7c1.1,0,1.9.2,2.3.6.4.4.7,1.1.7,2v.3l-2.4.6v-1.4Z"
       id="path5"
       style="fill:#ffffff" />
    <path
       class="st1"
       d="M149.6,243v9.8h-2.8v-9.8h-5.5v-2.1h13.7v2.1h-5.5Z"
       id="path6"
       style="fill:#ffffff" />
    <path
       class="st1"
       d="M180.6,252.7l-6.9-11.9h3.2l4.8,8.6,4.6-8.6h2.8l-6.5,11.9h-1.9Z"
       id="path7"
       style="fill:#ffffff" />
    <path
       class="st1"
       d="M196.8,252.7v-11.9h2.8v11.9h-2.8Z"
       id="path8"
       style="fill:#ffffff" />
    <path
       class="st1"
       d="M210.2,252.7v-11.9h1.9l8.3,7c.6.5,1.1.9,1.4,1.3,0-1.1-.1-1.8-.1-2v-6.2h2.5v11.9h-1.9l-8.7-7.3c-.4-.3-.7-.6-1-1,0,.8.1,1.4.1,1.9v6.4h-2.5Z"
       id="path9"
       style="fill:#ffffff" />
    <path
       class="st1"
       d="M240.4,243v9.8h-2.8v-9.8h-5.5v-2.1h13.7v2.1h-5.5Z"
       id="path10"
       style="fill:#ffffff" />
    <path
       class="st1"
       d="M251.6,252.7l6.7-11.9h2.7l6.8,11.9h-3.1l-1.4-2.6h-7.5l-1.4,2.6h-2.8ZM256.9,248h5.2l-2.6-4.8-2.6,4.8Z"
       id="path11"
       style="fill:#ffffff" />
    <path
       class="st1"
       d="M287.3,243h-8.6v7.5h8.6v-2.6h-4.5v-2h7.2v4.1c0,1.1-.2,1.8-.6,2.2-.4.4-1.2.6-2.3.6h-8.2c-1.1,0-1.9-.2-2.3-.6-.4-.4-.6-1.1-.6-2.2v-6.3c0-1.1.2-1.8.6-2.2.4-.4,1.2-.6,2.3-.6h8.2c1.1,0,1.9.2,2.3.6.4.4.6,1.1.6,2.1v.3l-2.7.5v-1.3Z"
       id="path12"
       style="fill:#ffffff" />
    <path
       class="st1"
       d="M300.4,252.7v-11.9h12.1v2h-9.4v2.6h5.5v2h-5.5v2.9h9.5v2.2h-12.3Z"
       id="path13"
       style="fill:#ffffff" />
    <path
       class="st1"
       d="M345.9,243h-7.5v7.5h7.5v-2.6l2.8.6v1.4c0,1.1-.2,1.8-.6,2.2-.4.4-1.2.6-2.3.6h-7.1c-1.1,0-1.9-.2-2.3-.6-.4-.4-.6-1.1-.6-2.2v-6.3c0-1.1.2-1.8.6-2.2.4-.4,1.2-.6,2.3-.6h7.1c1.1,0,1.9.2,2.3.6.4.4.6,1.1.6,2.2v1.1l-2.8.4v-2.3Z"
       id="path14"
       style="fill:#ffffff" />
    <path
       class="st1"
       d="M358.9,252.7v-11.9h2.8v9.6h8.9v2.2h-11.7Z"
       id="path15"
       style="fill:#ffffff" />
    <path
       class="st1"
       d="M379,243.7c0-1.1.2-1.8.6-2.2.4-.4,1.2-.6,2.3-.6h8.7c1.1,0,1.9.2,2.3.6.4.4.6,1.1.6,2.2v6.3c0,1.1-.2,1.8-.6,2.2-.4.4-1.2.6-2.3.6h-8.7c-1.1,0-1.9-.2-2.3-.6-.4-.4-.6-1.1-.6-2.2v-6.3ZM381.7,250.5h9.1v-7.5h-9.1v7.5Z"
       id="path16"
       style="fill:#ffffff" />
    <path
       class="st1"
       d="M409.5,243v9.8h-2.8v-9.8h-5.5v-2.1h13.7v2.1h-5.5Z"
       id="path17"
       style="fill:#ffffff" />
    <path
       class="st1"
       d="M423,252.7v-11.9h2.8v4.6h8.6v-4.6h2.8v11.9h-2.8v-5.1h-8.6v5.1h-2.8Z"
       id="path18"
       style="fill:#ffffff" />
    <path
       class="st1"
       d="M447.8,252.7v-11.9h2.8v11.9h-2.8Z"
       id="path19"
       style="fill:#ffffff" />
    <path
       class="st1"
       d="M461.2,252.7v-11.9h1.9l8.3,7c.6.5,1,.9,1.4,1.3,0-1.1-.1-1.8-.1-2v-6.2h2.5v11.9h-1.9l-8.7-7.3c-.4-.3-.7-.6-1-1,0,.8.1,1.4.1,1.9v6.4h-2.5Z"
       id="path20"
       style="fill:#ffffff" />
    <path
       class="st1"
       d="M497,243h-8.6v7.5h8.6v-2.6h-4.5v-2h7.2v4.1c0,1.1-.2,1.8-.6,2.2-.4.4-1.2.6-2.3.6h-8.2c-1.1,0-1.9-.2-2.3-.6-.4-.4-.6-1.1-.6-2.2v-6.3c0-1.1.2-1.8.6-2.2.4-.4,1.2-.6,2.3-.6h8.2c1.1,0,1.9.2,2.3.6.4.4.6,1.1.6,2.1v.3l-2.7.5v-1.3Z"
       id="path21"
       style="fill:#ffffff" />
  </g>
  <path
     style="opacity:1;fill:#ffffff;fill-opacity:1;stroke:none;stroke-width:17.628;stroke-linecap:square;stroke-miterlimit:4.1;stroke-dasharray:none;stroke-opacity:1;paint-order:stroke fill markers"
     sodipodi:type="inkscape:offset"
     inkscape:radius="3.0365491"
     inkscape:original="M 235.55664 5.3574219 C 231.40858 5.3574219 227.95452 7.8685151 226.93164 11.630859 C 226.42254 13.503451 225.15876 44.282934 224.70898 65.740234 C 224.42158 79.451318 224.24139 81.810547 223.48242 81.810547 C 223.22041 81.810547 215.94158 74.846335 207.30664 66.335938 C 198.67169 57.825535 189.85567 49.535471 187.7168 47.914062 C 183.22655 44.51014 175.7734 39.468246 173.50391 38.298828 C 169.98199 36.484065 164.59796 37.986063 162.32812 41.416016 C 159.70506 45.379745 160.0977 47.113323 167.48047 64.175781 C 169.94762 69.877653 171.88531 74.785442 171.78711 75.080078 C 171.6889 75.37471 169.97481 74.152946 167.97852 72.365234 C 157.29028 62.7937 145.26072 61.890192 130.26172 69.535156 C 122.58702 73.44694 116.38477 80.778635 116.38477 85.9375 C 116.38477 87.686542 115.74629 87.780977 113.11914 86.417969 C 111.80886 85.73817 109.54217 84.863186 108.08203 84.474609 C 104.65139 83.561636 96.179469 83.56705 91.849609 84.484375 C 90.00574 84.87502 88.332311 85.093256 88.130859 84.96875 C 87.929408 84.844248 87.618894 83.967574 87.441406 83.021484 C 87.07687 81.078358 84.778779 78.214395 82.736328 77.158203 C 80.978788 76.249368 76.653043 76.254661 74.064453 77.167969 C 72.950731 77.560913 68.92307 78.223006 65.115234 78.640625 C 43.791825 80.979238 35.516117 82.282871 32.625 83.757812 C 29.001993 85.606132 27.337255 89.722778 28.460938 94.054688 C 29.705678 98.853283 32.920276 100.77452 39.730469 100.79102 C 43.670998 100.80054 44.473361 100.96096 47.035156 102.25977 C 48.617953 103.06224 50.99487 104.67134 52.316406 105.83398 L 54.71875 107.94727 L 47.742188 108.2793 C 39.44658 108.67531 34.890145 109.54102 29.810547 111.68555 C 19.98528 115.83362 13.343004 121.98501 9.2207031 130.75 C 4.8697707 140.00113 5.4773017 147.90987 11.199219 156.46484 C 13.918557 160.53059 24.232371 171.50243 27.789062 174.11328 C 29.127853 175.09604 31.908836 176.60818 33.96875 177.47461 L 37.714844 179.05078 L 38.341797 182.15234 C 38.691359 183.87944 39.558398 186.1043 40.296875 187.16992 C 41.563463 188.99761 55.019436 202.13212 63.792969 210.10547 C 70.67593 216.36067 76.810183 220.34488 83.027344 222.59766 C 85.857604 223.6232 93.367766 223.82834 97.490234 222.99219 C 98.90952 222.70433 102.57491 221.25808 105.63672 219.77734 C 110.74766 217.30559 111.61066 216.67884 116.15234 212.14258 C 118.98666 209.31164 121.77404 206.00132 122.67969 204.39062 L 124.25977 201.58008 L 126.55078 201.88477 C 129.41017 202.26409 130.20259 201.94024 140.91602 196.01758 C 145.50235 193.48213 149.98152 191.15491 150.87109 190.8457 C 152.38494 190.3195 152.91756 190.48883 159.18555 193.49219 C 167.18476 197.32509 170.25554 198.19541 175.77344 198.19141 C 181.02544 198.18798 182.89144 197.66314 185.45508 195.46875 C 188.15259 193.15979 189.09233 191.23389 189.11523 187.9668 C 189.14502 183.7113 187.35326 180.86639 183.3418 178.79883 C 182.27049 178.24666 180.75068 177.26785 179.96484 176.62305 L 178.53516 175.44922 L 182.15625 175.11328 C 187.13254 174.64987 190.22266 173.70017 196.58008 170.68359 C 202.47692 167.88554 206.33665 164.79995 207.98828 161.5625 C 208.50403 160.55155 209.08582 159.72933 209.28125 159.73633 C 209.47668 159.74324 210.03842 160.61894 210.5293 161.68359 C 211.02017 162.74823 212.33507 164.36791 213.45117 165.28125 C 215.81281 167.21384 228.1992 175.18232 231.30273 176.76562 C 236.91817 179.6304 244.45508 175.36769 244.45508 169.32617 C 244.45508 166.70786 243.3907 164.08595 233.18164 141.54492 C 227.86491 129.8059 223.51562 120.00111 223.51562 119.75586 C 223.51562 119.51061 224.81227 120.34998 226.39648 121.62109 C 232.5854 126.58681 245.407 133.91406 247.90625 133.91406 C 249.75138 133.91406 252.63067 132.71693 254.11328 131.33398 C 256.39571 129.20497 257.0497 127.09328 257.45898 120.53711 L 257.8457 114.33984 L 264.61523 133.01562 C 272.75315 155.47043 282.70368 182.16058 283.82031 184.52539 C 284.64459 186.27107 292.10603 191.94005 300.30273 197.04883 C 304.02271 199.36739 307.14981 200.15762 309.88672 199.4707 C 312.73799 198.75508 316.03906 194.45152 316.03906 191.44922 C 316.03906 189.34601 314.23046 183.45933 309.00391 168.53906 C 306.43361 161.20161 304.44053 155.08877 304.57422 154.95508 C 304.70791 154.8214 306.52011 155.01892 308.60156 155.39258 C 314.71794 156.49059 321.53454 156.29592 325.16016 154.91992 C 328.05946 153.81956 328.2835 153.80263 330.13867 154.54492 C 331.20681 154.97231 335.39245 155.66716 339.44141 156.08984 C 343.49037 156.51252 347.31099 157.05114 347.93164 157.28711 C 348.55227 157.52308 350.64589 159.8666 352.58398 162.49414 C 357.67544 169.39684 363.71181 175.22799 367.89844 177.28906 C 370.91264 178.77294 371.72532 178.95898 375.23242 178.95898 C 378.82826 178.95898 379.3381 178.8342 381.01562 177.55469 C 382.02756 176.78286 383.16183 175.42083 383.53516 174.52734 C 384.46249 172.30792 384.39266 167.92301 383.39648 165.83398 C 382.94675 164.89086 382.70439 163.99093 382.85938 163.83594 C 383.01436 163.68095 385.23613 163.78868 387.79688 164.07422 C 394.54871 164.82709 397.50534 164.71964 400.83008 163.59961 L 403.78125 162.60547 L 405.80469 164.75781 C 406.91863 165.94168 408.72577 167.36091 409.82031 167.91211 C 412.89985 169.46291 419.55287 171.00633 424.38867 171.29297 C 428.43113 171.5326 429.1129 171.73208 433.17773 173.86133 C 438.23849 176.51226 442.42672 177.57463 450.19727 178.17578 C 454.42053 178.5025 456.27536 178.89552 458.96289 180.03516 C 462.80652 181.66504 473.40487 184.71686 478.2207 185.58008 C 481.10378 186.09686 481.6235 186.05787 483.63086 185.16992 C 486.85272 183.74474 488.56111 181.27461 488.82227 177.66406 C 488.97492 175.55373 488.79234 174.23091 488.15625 172.82031 C 487.30325 170.9287 487.31589 170.52327 488.61523 156.90039 C 489.34847 149.21267 490.13401 142.461 490.36133 141.89648 C 490.60921 141.2809 491.39242 140.74769 492.31836 140.5625 C 496.35824 139.75453 498.75439 135.9614 500.14062 128.18164 C 501.30626 121.64024 501.30759 120.67632 500.14648 118.40039 C 498.14998 114.48693 493.9272 111.76121 487.58789 110.29102 C 485.82613 109.88244 481.51314 108.31497 478.00391 106.80859 C 473.2549 104.77002 470.87588 104.01972 468.70117 103.87305 C 464.36001 103.58027 463.91941 103.42412 461.33594 101.26562 C 456.13721 96.922089 445.96884 93.303292 437.21094 92.681641 L 432.97852 92.380859 L 430.77734 90.138672 C 428.58729 87.906144 428.5765 87.875257 428.10547 83.226562 C 427.62313 78.466193 426.71168 75.512034 425.2207 73.863281 C 423.84494 72.341938 420.74705 71.015625 418.56641 71.015625 C 415.63901 71.015625 413.44439 72.090599 410.10547 75.160156 C 406.15282 78.793938 404.88373 79.375247 400.91602 79.373047 C 398.387 79.371659 397.20216 79.123895 395.90039 78.326172 C 385.39106 71.886085 375.1345 69.616849 367.29492 71.998047 C 365.43709 72.562348 363.35376 73.466842 362.66602 74.007812 C 361.97829 74.548785 361.20364 74.992188 360.94336 74.992188 C 360.68308 74.992188 359.68289 74.031649 358.7207 72.857422 C 355.384 68.785418 349.06517 65.419534 340.32422 63.058594 C 329.80423 60.217135 313.74787 57.947179 310.50781 58.841797 C 309.09886 59.230831 308.11775 59.067418 304.75391 57.884766 C 297.16776 55.217644 293.66604 54.539062 287.45703 54.539062 C 281.88193 54.539063 281.56199 54.596492 278.28516 56.191406 C 276.41791 57.100238 274.12592 58.423843 273.19141 59.130859 C 271.66237 60.287677 271.43393 60.337179 270.91602 59.628906 C 270.03097 58.418517 266.75281 47.82481 262.93555 33.84375 C 259.59968 21.625849 258.80308 19.462171 257.15234 18.126953 C 255.0334 16.413031 244.07021 8.9638583 241.1875 7.2792969 C 238.59309 5.7632117 237.40165 5.3574219 235.55664 5.3574219 z "
     xlink:href="#path87"
     id="path88"
     inkscape:href="#path87"
     d="m 235.55664,2.3203125 c -5.37354,0 -10.16753,3.4114388 -11.55469,8.5136715 -0.29815,1.096692 -0.23299,1.436448 -0.32031,2.539063 -0.0873,1.102615 -0.18195,2.557181 -0.28125,4.3125 -0.1986,3.510638 -0.41839,8.215424 -0.63672,13.53125 -0.43665,10.631651 -0.86434,23.701173 -1.08984,34.458984 -0.11099,5.295005 -0.21786,7.710301 -0.33203,10.0625 -0.27405,-0.260877 -0.41238,-0.384206 -0.70899,-0.667969 -2.91554,-2.789273 -6.88672,-6.650035 -11.19531,-10.896484 -4.33436,-4.271847 -8.70902,-8.48454 -12.28125,-11.84375 -3.57223,-3.359209 -6.15119,-5.733494 -7.60547,-6.835937 -2.3145,-1.754551 -5.32514,-3.881797 -8.07226,-5.740235 -2.74713,-1.858437 -5.07285,-3.375642 -6.58399,-4.154297 -2.62423,-1.352203 -5.58255,-1.382635 -8.26367,-0.634765 -2.68112,0.74787 -5.20381,2.309086 -6.83594,4.77539 -1.46244,2.209914 -2.41886,5.212926 -1.60351,8.814453 0.81534,3.601528 2.80347,8.278551 6.50195,16.826172 0.1686,0.389658 0.2607,0.638569 0.42383,1.019532 -4.4082,-2.846089 -9.13204,-4.556808 -14.15235,-4.933594 -6.92607,-0.519819 -14.24678,1.36967 -22.08203,5.363281 -4.22633,2.154155 -7.96566,5.17849 -10.75586,8.476563 -2.15691,2.549521 -3.80649,5.245702 -4.45703,8.089843 -1.51995,-0.715682 -3.27625,-1.448196 -4.80664,-1.855468 -4.63413,-1.233252 -12.52941,-1.110621 -17.642577,-0.02734 -0.406561,0.08613 -0.700087,0.122414 -1.068359,0.1875 -0.430751,-1.455719 -1.14614,-2.696928 -2.066407,-3.84375 -1.086423,-1.353884 -2.351891,-2.567445 -3.955078,-3.396485 -1.783775,-0.922401 -3.513526,-1.019789 -5.421875,-1.017578 -1.908349,0.0022 -3.861263,0.228709 -5.654297,0.861328 0.02159,-0.0076 -1.38788,0.337225 -2.947265,0.59375 -1.559386,0.256526 -3.475883,0.52211 -5.322266,0.72461 -10.680168,1.171331 -18.105462,2.082412 -23.298828,2.90039 -5.193365,0.817979 -8.074468,1.423407 -10.242187,2.529297 -4.913406,2.506633 -7.146757,8.273622 -5.722657,13.763672 0.75716,2.918924 2.402458,5.495264 4.929688,7.005864 2.527229,1.51059 5.581999,1.99692 9.271484,2.00586 3.859113,0.009 3.515796,-0.0882 5.939453,1.14062 0.160942,0.0816 0.418083,0.30265 0.615235,0.41602 -7.55107,0.4455 -12.575267,1.36209 -17.648438,3.5039 -10.364488,4.37572 -17.732172,11.16172 -22.1562498,20.56836 -4.6809242,9.95277 -3.9443713,19.50405 2.2031251,28.69531 3.2883977,4.91657 12.7457367,15.05303 17.3164057,18.40821 1.758038,1.29051 4.475356,2.7356 6.798829,3.71289 l 2.265625,0.95312 0.308593,1.52735 c 0.442647,2.18701 1.203795,4.36907 2.435547,6.14648 0.780545,1.12633 1.693729,1.98498 3.296875,3.625 1.603146,1.64002 3.69035,3.71451 6.011719,5.98047 4.642739,4.53192 10.211505,9.82249 14.640625,13.84766 7.072565,6.42751 13.548367,10.67411 20.242187,13.0996 2.162965,0.78375 4.778017,0.99645 7.699219,1.07618 2.921202,0.0797 5.941639,-0.0615 8.402344,-0.56055 2.36294,-0.47925 5.64598,-1.90015 8.86523,-3.45703 5.17145,-2.50101 6.76103,-3.64735 11.33985,-8.2207 2.96745,-2.96392 5.68827,-6.03057 7.02734,-8.41211 l 0.57227,-1.01758 0.25195,0.0332 a 3.0368527,3.0368527 0 0 0 0.002,0 c 1.57763,0.20928 3.56065,0.13826 5.78321,-0.76953 2.22255,-0.90779 5.08527,-2.48389 10.44922,-5.44922 2.27112,-1.25554 4.52059,-2.46294 6.29492,-3.38476 1.77432,-0.92183 3.48134,-1.67831 3.1875,-1.57618 0.55719,-0.19367 -0.24964,-0.20147 0.45703,0.0234 0.70666,0.22492 2.425,0.99538 5.54883,2.49219 8.11077,3.88636 12.06433,5.00228 17.90234,4.99805 2.72691,-0.002 4.76559,-0.11875 6.66992,-0.6543 1.90434,-0.53555 3.51691,-1.54273 4.98438,-2.79883 3.06654,-2.62483 4.69573,-5.94614 4.72265,-9.78711 0.0306,-4.37511 -2.0781,-8.11034 -5.5957,-10.63672 3.38369,-0.69073 6.68393,-1.72202 11.32422,-3.92383 5.06041,-2.40116 8.85938,-5.05993 11.29492,-8.24609 0.69029,0.8961 1.46296,1.72205 2.35156,2.44922 3.22287,2.63735 14.53055,9.86859 18.39453,11.83984 7.68136,3.91873 17.57032,-1.57757 17.57032,-10.14453 0,-1.72062 -0.44336,-3.64762 -2.03125,-7.56055 -1.5879,-3.91292 -4.40725,-10.19796 -9.51367,-21.47265 -2.09477,-4.62511 -3.79149,-8.42299 -5.37696,-11.97656 2.10614,1.37458 4.32653,2.73164 6.45703,3.94921 2.20084,1.25777 4.28695,2.36176 6.05664,3.18165 0.88485,0.40994 1.68784,0.74949 2.4336,1.00976 0.74576,0.26028 1.33439,0.49414 2.38867,0.49414 3.15855,0 5.99994,-1.27216 8.27734,-3.39648 1.40162,-1.3074 2.5677,-3.00348 3.20508,-5.06055 0.0587,-0.18927 0.0785,-0.43017 0.13086,-0.625 l 2.24024,6.18164 c 4.07273,11.23781 8.59791,23.52948 12.24609,33.31445 1.82409,4.89249 3.42848,9.15713 4.65039,12.35547 1.22191,3.19834 1.94064,5.09068 2.41797,6.10157 0.69036,1.46206 1.42856,1.97587 2.47461,2.92578 1.04605,0.9499 2.36589,2.02199 3.91015,3.19531 3.08852,2.34664 7.06306,5.07934 11.23829,7.68164 4.10541,2.55879 8.12781,3.74473 11.92773,2.79102 2.55124,-0.64032 4.3449,-2.3315 5.81641,-4.25 1.47151,-1.91851 2.63476,-4.10274 2.63476,-6.7168 0,-1.92201 -0.5616,-3.86217 -1.6914,-7.54102 -1.12981,-3.67884 -2.89729,-8.89845 -5.51563,-16.37304 -1.22853,-3.5071 -2.29302,-6.65518 -3.08008,-9.0586 6.34343,1.05053 12.90477,1.00792 17.44922,-0.71679 1.43022,-0.54281 2.06152,-0.69174 2.03125,-0.68946 -0.0303,0.002 -0.14081,-0.0596 0.74024,0.29297 1.27723,0.51105 2.40797,0.65925 4.16601,0.95117 1.75804,0.29193 3.86326,0.57696 5.95117,0.79492 1.9901,0.20776 3.93039,0.44595 5.42188,0.65625 0.74574,0.10516 1.38177,0.20295 1.83398,0.28321 0.21862,0.0388 0.10555,0.006 0.22656,0.0371 0.21234,0.20133 0.52498,0.52238 0.89063,0.93164 0.76186,0.85273 1.72564,2.03881 2.64062,3.27929 5.28711,7.16795 11.23091,13.16418 16.41602,15.7168 3.11801,1.53499 5.0613,1.98242 8.67578,1.98242 1.83305,0 3.02626,0.008 4.32813,-0.30859 1.30187,-0.31633 2.37801,-1.0179 3.29687,-1.71875 1.51162,-1.15295 2.68685,-2.3721 3.48047,-4.27148 0.74837,-1.79111 0.91558,-3.68056 0.88477,-5.61329 -0.0165,-1.03584 -0.10878,-2.04679 -0.29883,-3.03711 0.20139,0.0206 0.33015,0.0219 0.53711,0.0449 6.88048,0.76721 10.55268,0.65991 14.33789,-0.61524 l 1.10547,-0.37109 0.6875,0.73242 a 3.0368527,3.0368527 0 0 0 0.002,0 c 1.40714,1.49547 3.09585,2.89803 4.86133,3.78711 3.9258,1.97696 10.43961,3.38422 15.7539,3.69922 3.96323,0.23493 3.55029,0.1259 7.56055,2.22656 5.37538,2.81573 10.23217,4.03645 18.19336,4.65234 4.10472,0.31755 5.35822,0.5854 7.81445,1.62696 4.43643,1.88125 14.63052,4.79227 19.90821,5.73828 2.97157,0.53264 5.01921,0.33199 7.17382,-0.62109 4.04578,-1.78964 6.66948,-5.60291 6.99219,-10.06446 0.17181,-2.37518 -0.0887,-4.44993 -0.92773,-6.31054 -0.39077,-0.86658 -0.36301,-0.40853 -0.31055,-2.22461 0.0525,-1.81608 0.3759,-5.34867 1.02539,-12.15821 0.36487,-3.82547 0.74166,-7.42133 1.05469,-10.11133 0.15651,-1.34499 0.2989,-2.46664 0.41016,-3.25781 0.0239,-0.16973 0.0397,-0.2516 0.0605,-0.38867 2.69099,-0.62007 5.06427,-2.35075 6.62696,-4.82422 1.61454,-2.55554 2.60867,-5.78913 3.33984,-9.89258 0.5873,-3.29586 0.92068,-5.24052 0.92187,-7.02148 0.001,-1.78096 -0.54154,-3.38086 -1.20117,-4.67383 -2.52479,-4.94899 -7.72328,-8.09775 -14.57812,-9.6875 -1.15925,-0.26885 -5.69013,-1.86263 -9.07227,-3.31445 -4.83862,-2.07704 -7.57486,-2.99038 -10.29492,-3.17383 -2.1413,-0.14442 -3.09797,-0.28341 -3.5332,-0.4375 -0.43523,-0.15409 -0.83564,-0.422811 -2.08985,-1.470703 -6.05696,-5.060581 -16.43491,-8.614377 -25.85742,-9.283203 l -3.08594,-0.21875 -1.39648,-1.421875 h 0.002 c -1.09187,-1.113046 -1.22361,-1.277424 -1.3164,-1.517578 -0.0928,-0.240155 -0.26661,-1.251514 -0.50196,-3.574219 -0.50831,-5.016719 -1.36595,-8.563255 -3.65429,-11.09375 -2.3079,-2.552117 -5.49435,-3.847656 -8.90625,-3.847656 -3.67077,0 -6.9487,1.666137 -10.51563,4.945312 -1.91651,1.761906 -3.02119,2.588844 -3.79883,2.945313 -0.77763,0.356468 -1.4986,0.467814 -3.33398,0.466796 -2.33122,-0.0013 -2.59093,-0.08442 -3.43164,-0.599609 -10.98885,-6.733932 -22.01661,-9.395695 -31.07422,-6.644531 -1.05859,0.321538 -2.12823,0.7215 -3.08008,1.134765 -0.72522,0.314869 -1.3123,0.660011 -1.9375,1.0625 -0.11745,-0.134358 -0.20629,-0.211549 -0.32422,-0.355468 -4.00795,-4.891183 -10.86839,-8.352317 -19.95508,-10.806641 -5.43892,-1.469059 -12.15386,-2.756744 -18.0039,-3.583984 -2.92502,-0.41362 -5.62502,-0.710862 -7.86914,-0.84961 -2.24413,-0.138747 -3.79517,-0.261884 -5.54297,0.220703 -0.42503,0.117357 -0.35564,0.123197 -0.83789,0.04297 -0.48225,-0.08023 -1.46355,-0.362297 -3.09961,-0.9375 -7.70995,-2.710646 -11.87444,-3.517578 -18.30469,-3.517578 -2.79798,10e-7 -4.39144,-0.0099 -5.98633,0.277344 -1.59488,0.287289 -2.85318,0.873441 -4.51367,1.68164 -1.55713,0.75789 -2.98392,1.64442 -4.29101,2.490235 -0.46445,-1.31058 -1.05526,-3.110917 -1.74024,-5.324219 -1.39201,-4.49787 -3.15876,-10.616573 -5.06055,-17.582031 -1.67211,-6.124261 -2.70116,-9.737331 -3.60351,-12.189453 -0.90235,-2.452123 -1.93599,-4.06807 -3.19922,-5.089844 C 256.30662,13.536513 246.0727,6.6181436 242.71875,4.6582031 239.97848,3.0568816 237.84689,2.3203125 235.55664,2.3203125 Z M 224.78125,78.955078 c 0.12366,0.06702 0.16156,0.110599 0.18359,0.164063 -0.0422,-0.03665 -0.13166,-0.118085 -0.18359,-0.164063 z" />
  <path
     style="opacity:1;fill:#000000;fill-opacity:1;stroke:none;stroke-width:17.628;stroke-linecap:square;stroke-miterlimit:4.1;stroke-dasharray:none;stroke-opacity:1;paint-order:stroke fill markers"
     d="m 83.027089,222.59836 c -6.217161,-2.25278 -12.352054,-6.23714 -19.235015,-12.49234 -8.773533,-7.97335 -22.228578,-21.10799 -23.495166,-22.93568 -0.738477,-1.06562 -1.605076,-3.28997 -1.954638,-5.01707 l -0.627979,-3.10271 -3.745299,-1.57534 C 31.909078,176.60879 29.12832,175.0958 27.78953,174.11304 24.232838,171.50219 13.919188,160.53027 11.19985,156.46452 5.4779329,147.90955 4.8689758,140.00053 9.2199082,130.7494 13.342209,121.98441 19.985191,115.83414 29.810458,111.68607 c 5.079598,-2.14453 9.635404,-3.00987 17.931011,-3.40588 l 6.977765,-0.33309 -2.402795,-2.11391 c -1.321536,-1.16264 -3.697809,-2.77047 -5.280606,-3.57294 -2.561795,-1.29881 -3.363907,-1.46021 -7.304436,-1.46973 -6.810193,-0.0165 -10.025007,-1.93819 -11.269747,-6.736786 -1.123683,-4.33191 0.540585,-8.447249 4.163592,-10.295568 2.891117,-1.474941 11.166695,-2.778262 32.490104,-5.116875 3.807836,-0.417619 7.834567,-1.080808 8.948289,-1.473752 2.58859,-0.913308 6.914331,-0.917735 8.671871,-0.0089 2.042451,1.056192 4.340894,3.920262 4.70543,5.863388 0.177488,0.94609 0.487527,1.822028 0.688978,1.94653 0.201452,0.124506 1.874888,-0.09324 3.718757,-0.483885 4.32986,-0.917325 12.802869,-0.922073 16.233509,-0.0091 1.46014,0.388577 3.72686,1.262709 5.03714,1.942508 2.62715,1.363008 3.26469,1.269326 3.26469,-0.479716 0,-5.158865 6.20373,-12.49098 13.87843,-16.402764 14.999,-7.644964 27.02874,-6.742725 37.71698,2.828809 1.99629,1.787712 3.70996,3.009325 3.80817,2.714693 0.0982,-0.294636 -1.84001,-5.20087 -4.30716,-10.902742 -7.38277,-17.062458 -7.77534,-18.796683 -5.15227,-22.760412 2.26983,-3.429953 7.65446,-4.931605 11.17638,-3.116842 2.26949,1.169418 9.72236,6.211698 14.21261,9.61562 2.13887,1.621409 10.9538,9.91107 19.58875,18.421473 8.63494,8.510398 15.91427,15.473454 16.17628,15.473454 0.75897,0 0.93898,-2.358675 1.22638,-16.069759 0.44978,-21.4573 1.71482,-52.236041 2.22392,-54.108633 1.02288,-3.7623443 4.47585,-6.2747046 8.62391,-6.2747046 1.84501,0 3.03653,0.4069125 5.63094,1.9229977 2.88271,1.6845614 13.84647,9.1341249 15.96541,10.8480469 1.65074,1.335218 2.44663,3.498355 5.7825,15.716256 3.81726,13.98106 7.09627,24.574284 7.98132,25.784673 0.51791,0.708273 0.74557,0.658383 2.27461,-0.498435 0.93451,-0.707016 3.22685,-2.029075 5.0941,-2.937907 3.27683,-1.594914 3.59606,-1.652429 9.17116,-1.652429 6.20901,0 9.71207,0.677272 17.29822,3.344394 3.36384,1.182652 4.34502,1.345803 5.75397,0.956769 3.24006,-0.894618 19.29657,1.377135 29.81656,4.218594 8.74095,2.36094 15.05818,5.725699 18.39488,9.797703 0.96219,1.174227 1.96239,2.13496 2.22267,2.13496 0.26028,0 1.03593,-0.442614 1.72366,-0.983586 0.68774,-0.540971 2.77048,-1.445285 4.62831,-2.009586 7.83958,-2.381198 18.0964,-0.112328 28.60573,6.327759 1.30177,0.797723 2.48653,1.044866 5.01555,1.046254 3.96771,0.0022 5.23626,-0.579471 9.18891,-4.213253 3.33892,-3.069557 5.53323,-4.144449 8.46063,-4.144449 2.18064,0 5.28006,1.325858 6.65582,2.847201 1.49098,1.648753 2.40094,4.6042 2.88328,9.36457 0.47103,4.648694 0.48299,4.67963 2.67304,6.912158 l 2.19989,2.242564 4.2329,0.300461 c 8.7579,0.621651 18.92598,4.239042 24.12471,8.582578 2.58347,2.15849 3.02499,2.31478 7.36615,2.60756 2.17471,0.14667 4.55316,0.89735 9.30217,2.93592 3.50923,1.50638 7.82185,3.07316 9.58361,3.48174 6.33931,1.47019 10.56205,4.19743 12.55855,8.11089 1.16111,2.27593 1.16063,3.23875 -0.005,9.78015 -1.38623,7.77976 -3.78282,11.57279 -7.8227,12.38076 -0.92594,0.18519 -1.7093,0.71959 -1.95718,1.33517 -0.22732,0.56452 -1.01323,7.31634 -1.74647,15.00406 -1.29934,13.62288 -1.31096,14.02692 -0.45796,15.91853 0.63609,1.4106 0.81783,2.73419 0.66518,4.84452 -0.26116,3.61055 -1.96942,6.08034 -5.19128,7.50552 -2.00736,0.88795 -2.52633,0.92734 -5.40941,0.41056 -4.81583,-0.86322 -15.41516,-3.91481 -19.25879,-5.54469 -2.68753,-1.13964 -4.54206,-1.53315 -8.76532,-1.85987 -7.77055,-0.60115 -11.95867,-1.66263 -17.01943,-4.31356 -4.06483,-2.12925 -4.74712,-2.3286 -8.78958,-2.56823 -4.8358,-0.28664 -11.48711,-1.83066 -14.56665,-3.38146 -1.09454,-0.5512 -2.90147,-1.9708 -4.01541,-3.15467 l -2.02533,-2.15251 -2.95067,0.99401 c -3.32474,1.12003 -6.28043,1.22772 -13.03227,0.47485 -2.56075,-0.28554 -4.78272,-0.39236 -4.93771,-0.23737 -0.15499,0.15499 0.0862,1.05345 0.53593,1.99657 0.99618,2.08903 1.06627,6.47472 0.13894,8.69414 -0.37333,0.89349 -1.50672,2.25604 -2.51865,3.02787 -1.67752,1.27951 -2.18788,1.40334 -5.78372,1.40334 -3.5071,0 -4.3192,-0.18479 -7.3334,-1.66867 -4.18663,-2.06107 -10.22315,-7.89309 -15.31461,-14.79579 -1.93809,-2.62754 -4.0316,-4.97042 -4.65223,-5.20639 -0.62065,-0.23597 -4.44123,-0.77486 -8.49019,-1.19754 -4.04896,-0.42268 -8.23568,-1.11819 -9.30382,-1.54558 -1.85517,-0.74229 -2.07789,-0.72552 -4.97719,0.37484 -3.62562,1.376 -10.44243,1.57053 -16.55881,0.47252 -2.08145,-0.37366 -3.89382,-0.57 -4.02751,-0.43632 -0.13369,0.13369 1.8599,6.24644 4.4302,13.58389 5.22655,14.92027 7.03397,20.80724 7.03397,22.91045 0,3.0023 -3.2997,7.30495 -6.15097,8.02057 -2.73691,0.68692 -5.86458,-0.10344 -9.58456,-2.422 -8.1967,-5.10878 -15.65773,-10.77792 -16.48201,-12.5236 -1.11663,-2.36481 -11.06884,-29.0555 -19.20676,-51.5103 l -6.76771,-18.67402 -0.38681,6.19647 c -0.40928,6.55617 -1.06397,8.66864 -3.3464,10.79765 -1.48261,1.38295 -4.36254,2.5798 -6.20767,2.5798 -2.49925,0 -15.32067,-7.3281 -21.50959,-12.29382 -1.58421,-1.27111 -2.88038,-2.11045 -2.88038,-1.8652 0,0.24525 4.35005,10.05057 9.66678,21.78959 10.20906,22.54103 11.2726,25.16204 11.2726,27.78035 0,6.04152 -7.53605,10.30476 -13.15149,7.43998 -3.10353,-1.5833 -15.49041,-9.55213 -17.85205,-11.48472 -1.1161,-0.91334 -2.4309,-2.53169 -2.92177,-3.59633 -0.49088,-1.06465 -1.05239,-1.94137 -1.24782,-1.94828 -0.19543,-0.007 -0.7773,0.81458 -1.29305,1.82553 -1.65163,3.23745 -5.5122,6.32422 -11.40904,9.12227 -6.35742,3.01658 -9.44758,3.96541 -14.42387,4.42882 l -3.62011,0.33712 1.42878,1.17237 c 0.78584,0.6448 2.30533,1.62414 3.37664,2.17631 4.01146,2.06756 5.80347,4.91334 5.77368,9.16884 -0.0229,3.26709 -0.96199,5.19201 -3.6595,7.50097 -2.56364,2.19439 -4.42952,2.71909 -9.68152,2.72252 -5.5179,0.004 -8.58922,-0.86648 -16.58843,-4.69938 -6.26799,-3.00336 -6.80034,-3.17283 -8.31419,-2.64663 -0.88957,0.30921 -5.36986,2.63665 -9.95619,5.1721 -10.71343,5.92266 -11.50553,6.24617 -14.36492,5.86685 l -2.29058,-0.30385 -1.58068,2.81122 c -0.90565,1.61069 -3.69322,4.92123 -6.52754,7.75217 -4.54168,4.53626 -5.40284,5.16148 -10.51378,7.63323 -3.06181,1.48074 -6.728152,2.92779 -8.147438,3.21565 -4.122468,0.83615 -11.632903,0.63156 -14.463163,-0.39398 z"
     id="path87" />
  <g
     id="g46"
     style="stroke-width:1.4;stroke-dasharray:none"
     transform="translate(0.48696275,0.48696227)">
    <g
       id="g41"
       style="stroke-width:1.4;stroke-dasharray:none">
      <path
         class="st1"
         d="m 90.2,223.9 c -13,0 -25.9,-12.7 -36.3,-22.9 -0.9,-0.9 -1.8,-1.8 -2.7,-2.6 -4.4,-4.2 -9.9,-9.7 -11.3,-11.6 -1.7,-2.3 -2.2,-5.1 -1.5,-7.8 -6.7,-1.7 -11.8,-4.7 -15.5,-8.9 -1.5,-1.7 -3,-3.3 -4.4,-4.8 -7.9,-8.4 -16.8,-17.8 -9.7,-34.3 6.4,-14.8 23.7,-22.8 36.7,-22.8 13,0 7.3,0.6 10.3,1.9 12.1,5 26.3,24 29,27.8 2,2.7 2.3,6.2 1,9.2 8.9,2.7 17.7,10.4 27.6,23.7 0,0 0.1,0.1 0.1,0.2 l 9,13 c 0.3,0.4 0.5,0.8 0.7,1.2 2.2,4.5 4.1,14.4 -2.8,22.8 -5.8,7.1 -15.8,15.7 -30,15.9 H 90.1 Z M 67.5,188.5 c 2,2 4.7,4.6 7.5,7.1 l -6.4,-7.2 h -1.1 z m 39.1,4.9 c 0.1,0.4 0.2,0.8 0.3,1.2 0,-0.4 0,-0.7 0,-0.9 l -0.2,-0.3 v 0 z M 88,169.6 c 2.9,3.4 7.4,8.6 10.9,12.7 l -0.4,-0.5 c -4.2,-5.7 -7.7,-9.6 -10.6,-12.1 v 0 z M 26.4,137.2 c -0.2,0.4 -0.4,0.8 -0.6,1.2 -2.1,4.9 -1.6,6.1 6.2,14.3 1.5,1.6 3.1,3.3 4.8,5.3 0.8,0.9 2.4,2.1 5.6,3 C 36,156.4 31.8,149.6 30,146.6 L 29.6,146 c -1.2,-1.9 -2.7,-4.2 -3.1,-7.3 0,-0.4 -0.1,-0.9 -0.1,-1.5 z m 27.2,-6.8 c 1.2,1.3 2.7,3.1 4.7,5.3 0.2,0 0.4,-0.1 0.7,-0.2 -1.8,-1.9 -3.7,-3.7 -5.3,-5.1 v 0 z"
         id="path22"
         style="stroke-width:1.4;stroke-dasharray:none" />
      <path
         class="st1"
         d="m 127.7,202.1 c -2.7,0 -5.4,-1.2 -7.2,-3.4 -1.9,-2.3 -2.5,-5.4 -1.8,-8.1 -0.3,-0.7 -1,-1.9 -2.5,-3.6 -7.1,-8.6 -59.5,-76 -61.7,-78.9 -1.6,-2 -7.6,-7.9 -13,-7.4 -2.4,0.2 -3.4,0.3 -4,0.3 -6.1,0 -9.5,-4.6 -9.7,-9 -0.1,-3.5 1.8,-8.1 7.7,-9.5 0.5,-0.1 1.3,-0.3 2.3,-0.5 1.6,-0.3 3.8,-0.7 6.2,-1 2.7,-0.4 9.6,-1.4 15.2,-1.7 9,-0.6 12.8,-1.3 14.1,-1.6 2.8,-1.9 6.5,-2.3 9.7,-0.6 3.2,1.7 5,5.1 4.8,8.4 3.7,-1.2 8,-2.1 12.5,-2.1 9.7,0 17.7,4.2 23.2,12.1 1.7,2.4 40.4,58.9 45.9,68.1 4.4,7.4 10.7,13.4 12.8,14.8 5.3,1.6 7.7,6.4 7.2,10.5 -0.5,4.5 -4.3,9.7 -13.6,9.7 -3.4,0 -8.9,-0.8 -15.5,-4.5 -3.6,-2 -6.5,-3.4 -8.7,-4.1 l -19.5,11 c -1.4,0.8 -3,1.2 -4.5,1.2 v 0 z M 75.3,104.6 c 4.2,5.4 10.2,13.2 16.8,21.6 l -8.6,-11.7 c -1.5,-2 -2.1,-4.6 -1.6,-7.1 -0.7,0 -1.5,-0.1 -2.2,-0.3 -1.7,-0.4 -3.2,-1.3 -4.4,-2.5 z m -6,-7.8 c 0.4,0.5 2.2,2.8 4.8,6.2 0,-0.1 -0.1,-0.2 -0.2,-0.3 -1.1,-1.9 -2.3,-4.1 -3.3,-6 -0.4,0 -0.9,0.1 -1.4,0.2 v 0 z"
         id="path23"
         style="stroke-width:1.4;stroke-dasharray:none" />
      <path
         class="st1"
         d="m 181.6,175.3 v 0 c -14.3,0 -24.2,-14.1 -25.3,-15.7 0,0 0,0 0,-0.1 -0.3,-0.4 -25.7,-39.6 -34.7,-53.8 -5.4,-8.5 -6.9,-15.9 -4.6,-22.7 3.1,-9.3 12.5,-13.7 20.2,-16.6 4,-1.5 7.8,-2.2 11.5,-2.2 10.7,0 17.2,6.1 20.2,9 0.3,0.3 0.6,0.5 0.8,0.7 5.4,4.7 16.4,27.7 16.9,29.2 0.3,1 0.5,2.1 0.5,3.2 1.2,0.8 2.2,2 3,3.4 0.5,1.1 13.5,26 17.6,35.9 0.9,2.1 3.6,8.5 0.9,14.9 -2.9,6.9 -9.5,9.5 -17.9,12.8 l -1.1,0.4 c -2.5,1 -5.2,1.5 -7.9,1.5 v 0 z M 150,115.9 c 0.7,1.1 1.4,2.2 2.1,3.3 0,0 0,0 0,0 0.1,-0.5 0.4,-1.4 1,-2.6 -0.4,0 -0.8,0 -1.2,-0.1 -0.7,-0.1 -1.3,-0.3 -1.9,-0.5 v 0 z"
         id="path24"
         style="stroke-width:1.4;stroke-dasharray:none" />
      <path
         class="st1"
         d="m 306.9,199.8 c -1.8,0 -3.7,-0.5 -5.2,-1.6 l -15.4,-10.6 c -1.6,-1.1 -2.8,-2.7 -3.5,-4.5 L 257.4,113 v 11.8 c -0.2,3.3 -2,6.4 -4.9,8 -2.9,1.6 -6.5,1.5 -9.3,-0.2 L 227.6,123 c -1.4,-0.9 -2.5,-2.1 -3.3,-3.5 l -3,-5.7 -1.5,-1.5 24,52.6 c 1.7,3.7 0.7,8.1 -2.4,10.8 -3.1,2.7 -7.6,3 -11.1,0.8 l -16.4,-10.6 c -1.5,-1 -2.7,-2.4 -3.4,-4 L 161.4,50.3 c -1.7,-3.8 -0.6,-8.2 2.6,-10.9 3.2,-2.6 7.8,-2.8 11.2,-0.4 l 15.6,11 c 0.4,0.3 0.8,0.6 1.2,1 l 32.1,32.1 2.2,-69.1 c 0.1,-3.4 2,-6.4 5,-7.9 3,-1.5 6.6,-1.3 9.4,0.6 l 15.4,10.4 c 1.8,1.2 3.2,3.1 3.8,5.3 l 7,26.4 48.8,139 c 1.3,3.8 0,8 -3.1,10.4 -1.7,1.3 -3.6,1.9 -5.6,1.9 v 0 z M 244.1,34.9 243.5,54.7 c 1.1,-0.8 2.4,-1.3 3.8,-1.6 0.6,0 1.1,-0.1 1.7,-0.1 l -4.8,-18.2 v 0 z"
         id="path25"
         style="stroke-width:1.4;stroke-dasharray:none" />
      <path
         class="st1"
         d="m 317.7,156.5 v 0 c -1.1,0 -2.3,0 -3.5,-0.2 -17,-2.3 -20.7,-5.7 -28.1,-25.9 -1.3,-3.6 -2.8,-7.5 -4.4,-11.7 -8.1,-21.5 -13.5,-36.2 -14.2,-43.3 -0.2,-2 -0.6,-9.1 4.4,-14.9 2.5,-2.9 7.3,-6.4 15.5,-6.4 8.2,0 4,0.2 6.2,0.6 15.3,2.6 24,9.3 26.7,20.3 v 0.2 c 0.7,2.6 14.9,58.2 15,58.7 0,0.3 0.1,0.6 0.2,0.9 0.2,1.6 1.2,9.6 -4.1,15.8 -2.3,2.7 -6.5,5.8 -13.6,5.8 v 0 z"
         id="path26"
         style="stroke-width:1.4;stroke-dasharray:none" />
      <path
         class="st1"
         d="m 375.4,179.6 c -1.8,0 -3.1,-0.5 -4.2,-0.9 -0.3,-0.1 -0.7,-0.3 -1.2,-0.4 -7.8,-2.5 -15.9,-13 -19.5,-18.8 -0.6,-1 -1.2,-1.9 -1.6,-2.5 l -15.5,-1.4 c -3.6,-0.3 -6.7,-2.7 -7.9,-6.1 -1,-2.9 -0.5,-6 1.2,-8.4 -2.4,-9.8 -14.2,-58 -14.7,-60.2 -0.1,-0.6 -0.2,-0.5 -0.2,-1 -0.1,-0.4 -0.5,-1.3 -1.4,-2 -2.3,-1.6 -8.5,-5.7 -6.4,-12.8 1.2,-4 5,-6.7 9.3,-6.7 4.3,0 1.4,0 1.9,0.2 2.7,0.3 18.2,2 28.2,5.2 12.8,4.1 19.5,9.4 22.9,28.4 3,16.7 7.2,39.9 8.3,48.8 1.4,10.7 3,17.3 4.9,19.6 0.6,0.7 1.1,1.3 1.5,1.8 1.9,2.2 5.3,6.3 2.8,11.8 -1.5,3.3 -4.8,5.4 -8.5,5.4 v 0 z"
         id="path27"
         style="stroke-width:1.4;stroke-dasharray:none" />
      <path
         class="st1"
         d="m 395.5,164.7 c -0.2,0 -0.4,0 -0.6,0 -7.9,-0.3 -26.4,-0.9 -30.5,-20.7 -2.6,-12.7 -4.6,-26.9 -4.6,-27.5 -0.2,-1.8 0,-3.6 0.8,-5.2 -1.8,-2.9 -3.1,-6.3 -3.6,-10.5 -3,-18.7 2,-23.5 3.6,-25.1 3.2,-3.1 7.8,-4.8 13.2,-4.8 5.4,0 9.2,1.1 13.9,3.1 6.2,2.7 17.8,7.6 19,23.8 0.8,10 0.9,14.7 0.9,14.9 0,2 -0.6,4 -1.7,5.6 3.4,6.3 3.8,12.5 4.1,16.5 0,0.5 0,1.1 0.1,1.6 0,0.5 0,1.1 0.2,1.7 0.6,6.3 1.6,15.8 -4,22 -2.7,3 -6.5,4.6 -10.7,4.6 v 0 z"
         id="path28"
         style="stroke-width:1.4;stroke-dasharray:none" />
      <path
         class="st1"
         d="m 425.4,171.7 c -3.6,0 -10.2,-1.8 -13.8,-2.8 -3,-0.9 -9.9,-4.5 -10.6,-19.2 l -3.2,-47.3 c 0,-0.4 0,-0.6 0,-0.9 0,-0.7 -0.2,-1.7 -0.4,-2.2 -2.5,-1.8 -8.3,-6.1 -6.2,-13 1.3,-4.1 5.3,-6.9 9.7,-6.7 0.4,0 0.6,0 0.8,0 0.2,0 0.4,0 0.8,0.2 1,0 4.1,-0.5 7.9,-5.1 1.9,-2.4 4.8,-3.9 7.8,-3.9 3,0 5,1 6.8,2.9 2.9,3 3.3,7 3.2,10.8 v 0.8 c 0,0.9 0,1.8 0,2.7 3.2,1.5 5.3,4.8 5.3,8.4 v 1.5 c 0,2.8 -1.2,5.4 -3.4,7.2 0,0 -0.1,0.1 -0.2,0.2 0.3,9.9 1,31.6 1.5,47 0,0.2 0,0.2 0,0.4 0,0.6 0.2,1.4 0.4,1.7 4,3.5 4.3,7.9 3.1,10.9 -1.1,3.1 -4.2,6.3 -9.6,6.3 v 0 z"
         id="path29"
         style="stroke-width:1.4;stroke-dasharray:none" />
      <path
         class="st1"
         d="m 450,178.2 c -2.4,0 -5.1,-0.3 -8.2,-1 -11.6,-2.4 -19,-9.7 -20.9,-20.5 -0.7,-4.3 -1.2,-11.5 -1.5,-34.5 -0.2,-12.9 0.7,-20.3 5.6,-25.3 2.9,-2.9 6.7,-4.4 11.3,-4.4 4.6,0 7.4,0.9 12.1,2.2 17.2,4.8 21.3,16.6 21.1,23 l -0.4,17.6 c 0,0.8 -0.1,1.6 -0.4,2.4 0.2,0.9 0.4,1.9 0.3,2.9 0,0.5 -0.6,12.2 -1.3,20.2 -1.3,15.2 -11.7,17.5 -17.8,17.5 v 0 z"
         id="path30"
         style="stroke-width:1.4;stroke-dasharray:none" />
      <path
         class="st1"
         d="m 480.1,186 c -0.8,0 -1.6,-0.1 -2.4,-0.3 L 460,180.9 c -3.5,-1 -6.2,-3.9 -6.7,-7.6 -0.5,-3.3 0.8,-6.6 3.4,-8.6 0.6,-7.9 2.9,-37.7 3.4,-42.8 0,-0.6 0,-1.1 0,-1.4 -0.2,-0.3 -0.4,-0.5 -0.5,-0.8 -3.4,-5.4 -1.7,-9.7 -0.8,-11.3 1.7,-3.1 5,-5.1 8.6,-5.1 3.6,0 3.2,0.4 4.7,1.1 0.4,0.2 1,0.4 1.8,0.7 4.9,1.9 8.1,3.2 10.4,4.8 7,0 12.6,4.2 13.6,5.1 3.5,2.9 4.3,7.8 2.1,11.7 0.6,4.8 -1.2,8.8 -3.2,11.2 -1.7,1.9 -4,3 -6.5,3.1 -1.1,10.7 -2.6,25.7 -3,29.4 0,0.3 0,0.6 0,0.8 2.1,2.6 2.6,6.2 1.2,9.4 -1.5,3.4 -4.9,5.6 -8.5,5.6 v 0 z"
         id="path31"
         style="stroke-width:1.4;stroke-dasharray:none" />
      <g
         id="g45"
         style="stroke-width:1.4;stroke-dasharray:none">
        <g
           id="g40"
           style="stroke-width:1.4;stroke-dasharray:none">
          <path
             class="st3"
             d="m 50.5,179.8 24.9,-2.7 18.1,20.6 c 0,0 3.9,1.5 5.7,-0.3 1.8,-1.8 2.3,-2.6 0.3,-5.1 -2,-2.6 -18.1,-21.2 -18.1,-21.2 0,0 -0.6,-2.3 -7.6,-2.1 -7,0.1 -31.3,4.5 -41,-6.5 -9.7,-11 -18.1,-16.3 -12.5,-29.3 5.6,-13 24.8,-20.3 35.1,-16 10.3,4.2 25.1,24.6 25.1,24.6 0,0 -15.1,-1.5 -21.8,3.6 0,0 -10.9,-12.8 -12.1,-13.5 -1.2,-0.6 -3.6,-1.4 -6.3,0.8 -2.7,2.1 -1.7,3.9 0.2,6.8 1.8,2.9 9.2,16.2 19.6,15.4 0,0 16.2,-2.2 23.7,-1.1 7.5,1.1 15.7,7.9 25.2,20.9 l 9,13 c 0,0 3.3,6.8 -1.7,12.9 -5,6.1 -12.7,12.3 -23,12.5 C 83,213.2 69.6,199 60.6,190.2 51.6,181.5 50.4,179.8 50.4,179.8 Z"
             id="path32"
             style="stroke-width:1.4;stroke-dasharray:none" />
          <path
             class="st3"
             d="m 85,96.6 c 0,0 22.3,-14.3 33.9,2.5 0,0 40.2,58.6 45.6,67.6 5.4,9 14.4,18.1 17.9,18.9 3.5,0.8 -3.5,5 -14.4,-1.2 -11,-6.2 -14.4,-6 -16.5,-6 -2.1,0 0.8,-3.1 -5.2,-11.5 -6,-8.5 -43.3,-59.6 -43.3,-59.6 0,0 -1.5,-3.9 -8.9,0.2 l 50.6,69 c 0,0 3.3,3.3 4.7,3.5 h 1.4 c 0,0.1 -20,11.4 -20,11.4 0,0 2.8,-3.2 -4.3,-11.8 C 119.4,171 65,100.9 65,100.9 c 0,0 -9.3,-12.1 -21.2,-10.9 -11.9,1.1 8.6,-2.4 19.1,-3 10.5,-0.7 17.9,-1.8 18.7,-3.2 0,0 -1.5,3.1 -0.9,4.7 0.6,1.6 4.3,8.3 4.3,8.3 z"
             id="path33"
             style="stroke-width:1.4;stroke-dasharray:none" />
          <path
             class="st3"
             d="m 202.2,147.6 c -4,-9.6 -17.3,-35.2 -17.3,-35.2 0,0 -10.4,4.8 -10.6,9.4 l 13.6,26.2 c 0,0 1.4,2.2 -1.7,3.6 -3.1,1.4 -5,-2.8 -5,-2.8 l -17.1,-28.9 c 0,0 2.1,-7.7 14.8,-13.7 0,0 2.3,-0.6 1.9,-1.7 -0.4,-1.2 -11,-22.3 -14.2,-25.2 -3.3,-2.9 -9.6,-10.8 -23.3,-5.8 -13.7,5 -20,11.4 -11,25.6 9,14.2 34.6,53.7 34.6,53.7 0,0 10.4,15.4 22.1,10.8 11.7,-4.6 17.1,-6.3 13.1,-16 z m -45.8,-41.9 c 0,0 -6,-8.9 -7.9,-12.5 -1.9,-3.7 -4.2,-6.9 -1.5,-8.3 2.7,-1.3 4.4,0 6.3,1.9 1.9,1.9 8.3,14.8 8.3,14.8 l -5.2,4 z"
             id="path34"
             style="stroke-width:1.4;stroke-dasharray:none" />
          <polygon
             class="st2"
             points="235.5,113.6 251.1,123.2 251.9,60.6 294.6,178.4 310,189 261.1,49.7 254,22.9 238.6,12.5 235.7,103 188.6,55.8 173,44.9 222.1,156.5 238.4,167 192.6,66.6 231.9,106.6 "
             id="polygon34"
             style="stroke-width:1.4;stroke-dasharray:none" />
          <path
             class="st3"
             d="m 329.3,134.7 c 0,0 -14.3,-56.1 -15,-58.8 -0.7,-2.7 -2.1,-10.7 -19.3,-13.7 -17.2,-3 -15.3,10.6 -15.3,10.6 0.7,7.8 11.5,35 18.1,52.7 6.5,17.7 7.9,18.2 20.7,19.9 12.8,1.7 10.9,-10.8 10.9,-10.8 z m -13.8,-0.2 c -2.7,0.7 -4.4,-4 -4.5,-4.5 0,-0.5 -16.2,-52.2 -16.2,-52.2 0,0 -1.8,-4.3 -0.8,-5.1 0.9,-0.7 3.4,-0.5 4.6,0.5 1.2,1 2,2 3,5.9 1.1,3.9 14.9,50.5 14.9,50.5 0,0 1.7,4.3 -1,5 z"
             id="path35"
             style="stroke-width:1.4;stroke-dasharray:none" />
          <path
             class="st3"
             d="m 317,66.1 c 0,0 16.7,1.6 26.7,4.8 9.9,3.2 13.9,5.9 16.6,21.3 2.8,15.4 7.1,39.5 8.3,48.4 1.2,8.9 2.9,19.3 6.9,24.2 4,4.9 3.9,4.2 0.4,3.1 -3.6,-1.2 -10,-7.6 -14.4,-14.8 -4.4,-7.2 -5.7,-7.5 -5.7,-7.5 0,0 1.1,0 1.1,-1.9 0,0 -0.7,-6.8 -2.6,-17 -1.9,-10.2 -8.6,-42.3 -8.6,-42.3 0,0 -0.6,-6.6 -7.9,-6.2 l 13,60.1 c 0,0 1.4,6 2.8,7 l 1.3,1.1 -17.5,-1.5 c 0,0 2.7,-2.6 1.8,-6.1 -0.9,-3.5 -15.1,-61.7 -15.1,-61.7 0,0 -0.6,-5.2 -5.5,-8.5 -4.9,-3.3 -1.5,-2.5 -1.5,-2.5 z"
             id="path36"
             style="stroke-width:1.4;stroke-dasharray:none" />
          <path
             class="st3"
             d="m 369.3,98 c 0,0 -2.3,-14.1 0.9,-17.2 3.2,-3.1 10.3,-2.7 17,0.2 6.7,2.9 12.7,6.1 13.5,16 0.8,9.9 0.9,14.4 0.9,14.4 l -13,-9 c 0,0 1,-12.2 -4.6,-13.9 0,0 -3,-1.3 -2.6,2.9 0.4,4.1 1.2,9.5 1.7,10.9 0.5,1.3 3.1,5.3 11.9,12.1 8.9,6.8 8.6,15.5 9,21.3 0.5,5.8 2.6,18.6 -5.7,18.3 -8.3,-0.3 -19.1,-0.9 -21.7,-13.4 -2.6,-12.5 -4.5,-26.8 -4.5,-26.8 l 13.3,10.1 2.2,17.3 c 0,0 1,3.3 3.3,3.3 2.3,0 2.4,-1.1 1.9,-5.4 -0.5,-4.3 -1.6,-14.7 -1.6,-14.7 0,0 -7.4,-7.6 -12.6,-12 -5.2,-4.4 -8.6,-7.9 -9.2,-14.2 z"
             id="path37"
             style="stroke-width:1.4;stroke-dasharray:none" />
          <path
             class="st3"
             d="m 403.6,87.3 c 0,0 8.5,2.1 17.1,-8.5 0,0 1.4,-2.1 1.3,3.9 0,6.1 -0.3,9.7 2.5,10.9 l 2.8,1.2 v 1.5 c 0,0 -3.8,-0.8 -3.8,2.2 0,3 1.6,52.4 1.6,52.4 0,0 0,5.7 3.6,8.8 3.7,3.1 -11.5,-1.3 -11.5,-1.3 0,0 -3.5,-1 -3.9,-10.9 l -3.2,-47.3 c 0,0 0.3,-6.8 -4.1,-9.9 -4.4,-3.1 -2.4,-3 -2.4,-3 z"
             id="path38"
             style="stroke-width:1.4;stroke-dasharray:none" />
          <path
             class="st3"
             d="m 449,101.9 c -14.8,-4.1 -17.6,-2.7 -17.3,18.5 0.3,21.2 0.7,29.2 1.4,33.1 0.7,3.9 3,10.8 13.7,13 10.7,2.2 14.2,-0.3 14.9,-8.3 0.7,-8 1.3,-19.9 1.3,-19.9 0,0 -6.6,-2.9 -12.2,-0.5 l -1.1,18.3 c 0,0 0,2.3 -3.4,1.4 -1.7,-0.5 -1.6,-4.9 -1.6,-4.9 0,-4.3 0,-17.2 0,-17.2 0,0 1.8,-4.5 10.1,-3.3 l 8.3,1.2 0.4,-17.7 c 0,0 0.5,-9.7 -14.4,-13.8 z m 1.8,11.5 -0.4,9.8 -5.7,-0.3 c 0,0 0,-8.9 0.1,-11.1 0.2,-2.2 1.2,-2.6 3.1,-2 3.2,1 2.9,3.5 2.9,3.5 z"
             id="path39"
             style="stroke-width:1.4;stroke-dasharray:none" />
          <path
             class="st3"
             d="m 465.5,170.3 17.7,4.8 c 0,0 -2.5,-1.5 -1.9,-7.4 0.6,-5.9 4.1,-40.5 4.1,-40.5 0,0 2.1,-3.8 4.9,-0.5 l 2.8,3.3 c 0,0 1.5,-1.7 0.9,-4.4 -0.7,-2.7 1.3,-5.2 1.3,-5.2 0,0 -5.6,-4.7 -10.6,-2.2 0,0 -0.5,-0.2 -1.6,-1.7 -1.2,-1.5 -10.7,-4.8 -11.7,-5.4 -1.1,-0.6 -1.8,0.2 -0.7,2 1.2,1.8 2.4,2.3 1.8,8.1 -0.6,5.8 -3.6,44.4 -3.6,44.4 0,0 0,2.6 -3.4,4.7 z"
             id="path40"
             style="stroke-width:1.4;stroke-dasharray:none" />
        </g>
      </g>
    </g>
  </g>
</svg>
